<svg xmlns="http://www.w3.org/2000/svg" viewBox="0 0 24 24"><g data-name="Layer 2"><g data-name="Layer 1"><path fill="none" d="M0 0h24v24H0z"/><circle cx="11.69" cy="12.09" r="6.3" fill="#fff"/><path fill="#de8aff" d="M22.5 12.5a4 4 0 0 0-2.15-3.6 4.18 4.18 0 0 0 .24-1.4 3.91 3.91 0 0 0-3.82-4 3.59 3.59 0 0 0-1.34.25 3.75 3.75 0 0 0-6.87 0 3.61 3.61 0 0 0-1.33-.25 3.91 3.91 0 0 0-3.82 4 4.19 4.19 0 0 0 .24 1.4 4.1 4.1 0 0 0-.21 7.1 4.38 4.38 0 0 0 0 .51 3.91 3.91 0 0 0 3.82 4 3.62 3.62 0 0 0 1.34-.25 3.75 3.75 0 0 0 6.87 0 3.64 3.64 0 0 0 1.34.25 3.91 3.91 0 0 0 3.82-4 4.14 4.14 0 0 0 0-.51 4 4 0 0 0 1.87-3.5zm-6.62-3.33l-4.33 6.5a.75.75 0 0 1-1 .21l-.11-.09L8 13.36a.75.75 0 1 1 1-1.05l1.77 1.77 3.82-5.74a.75.75 0 0 1 1.25.83z"/></g></g></svg>