<svg width="323.36" height="56.16" xmlns="http://www.w3.org/2000/svg">
 <defs>
  <style>.cls-1{fill:#fff;}.cls-2{fill:#fff;stroke:#fff;}.cls-1{stroke-miterlimit:10;}.cls-2{stroke-width:0.26px;}</style>
 </defs>
 <title>Asset 1cx23za</title>
 <g>
  <title>background</title>
  <rect fill="#000000" id="canvas_background" height="58.16" width="325.36" y="-1" x="-1"/>
 </g>
 <g>
  <title>Layer 1</title>
  <g id="Layer_2">
   <g id="Layer_1-2">
    <g id="Layer_2-2">
     <g id="svg3719">
      <g id="layer1">
       <g id="text3723">
        <path stroke="#fff" fill="#000000" id="svg_2" d="m62.21,41.7c0.79,4.68 1.66,6.3 4.18,6.3a6.4,6.4 0 0 0 2.66,-0.45c-0.36,5.26 -4.54,7.42 -8.5,7.42c-4.25,0 -7.06,-3.74 -8.5,-12.53l-9.93,12.07l-5.19,0l14.57,-16.41l-1.15,-8.1c-0.72,-4.82 -1.44,-6 -2.74,-6c-2.81,0 -7.13,5.73 -9.61,17.61l-3,0c2.23,-10.66 7.34,-23.47 17,-23.47c5.76,0 7.13,4.9 7.78,8.57l0.72,5.29c3.82,-4.39 5.9,-7.49 6,-10.15a8,8 0 0 1 -1.22,0.14c-2.52,0 -3.38,-1.8 -3.38,-4c0,-2.45 2.3,-3.53 4.9,-3.53s4,3.46 4,6.55c0,4.46 -3.17,8.21 -9.65,15.27l1.06,5.42z" class="cls-1"/>
        <path stroke="#fff" fill="#000000" id="svg_3" d="m137.95,0.65l-11.45,53.86l-8.71,0l-6.12,-37.66l-8,37.66l-10.36,0l10.37,-48.89c-6.26,2.59 -10,8.06 -10,15.7c0,3.67 0.94,4.25 1,4.9c-5,0 -7.7,-1.8 -7.7,-7c0.02,-8.22 8.02,-18.72 20.38,-18.72c2.16,0 4.61,0 6.7,1l5.69,38.16l7.85,-39l10.35,-0.01z" class="cls-1"/>
        <path stroke="#fff" fill="#000000" id="svg_4" d="m149.5,48.9c5.69,0 9.15,-3.17 12.75,-7.27l2.45,0c-4.1,6.62 -10.23,13.32 -19.8,13.32c-6.77,0 -11.23,-3.31 -11.23,-11.45s4.68,-25.63 19.44,-25.63c6.41,0 7.92,3.31 7.92,6.91c0,8.28 -7.92,14.69 -16.56,15.19c-0.07,1 -0.14,2 -0.14,2.88c0.03,4.9 1.75,6.05 5.17,6.05zm4.18,-27.22c-3.67,0 -7.2,7.7 -8.64,14.83c5.54,-0.36 10.44,-5.9 10.44,-11.88c0,-1.8 -0.4,-2.95 -1.76,-2.95l-0.04,0z" class="cls-1"/>
        <path stroke="#fff" fill="#000000" id="svg_5" d="m180,7.14l-2.5,11.37l4.32,0l-0.58,2.88l-4.32,0l-4.61,21.61a10,10 0 0 0 -0.29,2.3c0,2 0.94,2.66 3,2.66c2.81,0 5.4,-2.74 6.48,-6.34l3,0c-4.1,11.74 -11.23,13.32 -15.12,13.32c-4.32,0 -7.7,-2.59 -7.7,-8.64a23.63,23.63 0 0 1 0.58,-4.68l4.32,-20.23l-2.38,0l0.6,-2.87l2.38,0l2.16,-9.94l10.66,-1.44z" class="cls-1"/>
        <path stroke="#fff" fill="#000000" id="svg_6" d="m196.77,18.51l-5.18,24.49a7.72,7.72 0 0 0 -0.22,1.8c0,1.66 0.5,3.17 2.16,3.17c2.81,0 4.68,-2.74 5.76,-6.34l4.9,-23.11l10.37,0l-5.18,24.48a13.79,13.79 0 0 0 -0.36,2.59a2.15,2.15 0 0 0 2.48,2.41c7.06,0 12.5,-16.17 12.5,-24c-0.22,0.5 -1.73,0.72 -2.3,0.72c-1.73,0 -2.59,-2.09 -2.59,-3.67c0,-2.23 1.44,-3.89 4.46,-3.89c3.46,0 4.54,3.1 4.54,6.26c0,11.52 -5.83,31.61 -20.52,31.61c-4.68,0 -7.78,-2 -8.64,-6c-3.53,5.19 -7.34,6 -10.22,6c-4.32,0 -7.71,-2.59 -7.71,-8.64a23.66,23.66 0 0 1 0.58,-4.68l4.84,-23.16l10.33,-0.04z" class="cls-1"/>
        <path stroke="#fff" fill="#000000" id="svg_7" d="m257,29.38a1.69,1.69 0 0 0 0.79,0.14c3.31,0 8,-2.16 11.09,-4.32l0.65,1.94c-2.74,3 -7.49,5.11 -12.74,6c-1.15,13.32 -8.35,21.67 -17.21,21.67c-6.7,0 -11.52,-3.17 -11.52,-11.38s4.9,-25.56 19.73,-25.56c6.21,-0.01 9.21,3.95 9.21,11.51zm-6.19,4c-1.51,-0.36 -1.94,-1.58 -1.94,-3a4,4 0 0 1 2.23,-3.89c-0.14,-3 -0.86,-4.18 -2.74,-4.18c-5.11,0 -9.58,13.18 -9.58,20.23c0,4.75 0.94,5.83 3.67,5.83c3.53,0 7.2,-6.53 8.35,-15l0.01,0.01z" class="cls-1"/>
        <path stroke="#fff" fill="#000000" id="svg_8" d="m276,18.51l-1,4.49c2.52,-2.16 5.26,-4.46 8.71,-4.46c3.24,0 5,2.66 5,5.4a5,5 0 0 1 -4.71,5.23l-0.51,0c-4,0 -2,-4.75 -4.18,-4.75s-3.42,1.09 -5.22,2.73l-5.76,27.36l-10.33,0l7.63,-36l10.37,0z" class="cls-1"/>
        <path stroke="#fff" fill="#000000" id="svg_9" d="m321.76,18.51l-14.4,10a13.39,13.39 0 0 1 2.38,-0.29c5.33,0 7.92,3.82 7.92,8.42a12.17,12.17 0 0 1 -0.29,2.74l-0.79,3.6a11.89,11.89 0 0 0 -0.36,2.3c0,1.44 0.58,2.66 2.81,2.66a4.68,4.68 0 0 0 2.47,-0.43c-0.36,5.11 -4.83,7.42 -6.7,7.42c-5.9,0 -9.07,-3 -9.07,-8.21a18.07,18.07 0 0 1 0.43,-3.74l0.58,-2.81a12.09,12.09 0 0 0 0.26,-2.67c0,-2.09 -0.72,-3.46 -2.59,-3.46c-1.66,0 -3.31,1 -5.33,2.66l-3.7,17.81l-10.38,0l10.46,-49l10.64,-1.4l-5.4,25.35l13.89,-11l7.17,0.05z" class="cls-1"/>
        <text stroke="#000000" transform="matrix(2.3416146576434658,0,0,3.073120624259826,-12.132617929070829,-109.61037503243007) " font-weight="bold" xml:space="preserve" text-anchor="start" font-family="'Shadows Into Light', serif" font-size="24" id="svg_11" y="53.148036" x="4.186978" stroke-width="0" fill="#fff">H</text>
       </g>
       <path stroke="#fff" fill="#000000" d="m35.5,41.17c-0.08,0.16 -0.16,0.32 -0.23,0.49l-0.09,0.23a1.79,1.79 0 0 1 -0.13,0.22a5.52,5.52 0 0 1 -0.33,0.54l-0.19,0.3l-0.18,0.26l-0.2,0.33c-0.4,0.61 0,-0.06 -0.31,0.48a2.94,2.94 0 0 1 -0.2,0.33l-0.06,0.1l-0.08,0.06l0,0l0,0l0,0" class="cls-2" id="path4784"/>
       <path stroke="#fff" fill="#000000" d="m37.61,40.64l0,0.28a0.56,0.56 0 0 1 0,0.09l0,0.11a1.38,1.38 0 0 1 -0.06,0.23l0,0.16l-0.06,0.13l-0.08,0.13l-0.06,0.12l-0.08,0.12l-0.07,0.11l-0.06,0.08l0,0.08l-0.08,0.08l-0.08,0.1a0.82,0.82 0 0 1 -0.16,0.19l-0.08,0.07l-0.15,0.15l-0.08,0.08l-0.07,0.07l0,0l-0.07,0l-0.15,0l-0.08,0.06l0,0" class="cls-2" id="path4808"/>
       <path stroke="#fff" fill="#000000" d="m37,41.1a0.36,0.36 0 0 1 0,0.16l0,0.11a2.47,2.47 0 0 1 -0.13,0.33l-0.15,0.32c-0.05,0.11 -0.14,0.24 -0.21,0.36l-0.2,0.37l-0.2,0.36l-0.22,0.4l-0.13,0.25c-0.35,0.6 0,0 -0.26,0.47l-0.15,0.27l-0.06,0.12a0.2,0.2 0 0 1 -0.08,0.19l0,0.19l0,0l0,0l0,0" class="cls-2" id="path4818"/>
       <path stroke="#fff" fill="#000000" d="m37.73,41l-2.15,1.31" class="cls-2" id="path4820"/>
       <path stroke="#fff" fill="#000000" d="m35.62,41.27a1.06,1.06 0 0 1 -0.08,0.31l0,0.19l0,0" class="cls-2" id="path4822"/>
       <path stroke="#fff" fill="#000000" d="m36.33,40.89l-0.53,1" class="cls-2" id="path4824"/>
       <path stroke="#fff" fill="#000000" d="m37.61,40.64a1.62,1.62 0 0 0 -0.13,0.23c0,0.13 -0.08,0.28 -0.12,0.42l-0.08,0.3a1.27,1.27 0 0 1 -0.1,0.37a4.21,4.21 0 0 1 -0.17,0.39c-0.06,0.13 -0.11,0.27 -0.17,0.4a11.37,11.37 0 0 1 -0.74,1.32c-0.12,0.18 -0.24,0.35 -0.37,0.52s-0.73,1 -1,1.31s-0.29,0.27 -0.42,0.42s-0.3,0.38 -0.47,0.55s-0.22,0.2 -0.33,0.3a4.3,4.3 0 0 1 -0.52,0.45l-0.17,0.15l-0.12,0.07l-0.17,0.08" class="cls-2" id="path4852"/>
       <path stroke="#fff" fill="#000000" id="svg_10" d="m37.93,41.64s-2.24,4.19 -4,4a31.7,31.7 0 0 1 1,-4.09" class="cls-1"/>
      </g>
     </g>
    </g>
   </g>
  </g>
 </g>
</svg>